<svg width="20" height="20" viewBox="0 0 20 20" fill="none" xmlns="http://www.w3.org/2000/svg">
<path fill-rule="evenodd" clip-rule="evenodd" d="M18.2071 1.79289C18.5976 2.18342 18.5976 2.81658 18.2071 3.20711L11.4142 10L18.2071 16.7929C18.5976 17.1834 18.5976 17.8166 18.2071 18.2071C17.8166 18.5976 17.1834 18.5976 16.7929 18.2071L10 11.4142L3.20713 18.2071C2.81661 18.5976 2.18344 18.5976 1.79292 18.2071C1.40239 17.8166 1.40239 17.1834 1.79292 16.7929L8.58579 10L1.79289 3.20713C1.40237 2.81661 1.40237 2.18344 1.79289 1.79292C2.18342 1.40239 2.81658 1.40239 3.20711 1.79292L10 8.5858L16.7929 1.79289C17.1834 1.40237 17.8166 1.40237 18.2071 1.79289Z" fill="#F0F0F0"/>
</svg>
