<svg width="17" height="21" viewBox="0 0 17 21" fill="none" xmlns="http://www.w3.org/2000/svg">
<path d="M15.2121 0.0131707L1.87224 0C0.811562 0.13039 0.0408707 1.00822 0 2.09216V18.9052C0.0402222 20.0023 0.836863 20.8973 1.9183 21H15.0817C16.1618 20.8973 16.9591 20.0036 17 18.9052L16.9974 2.04541C16.9124 0.987143 16.2455 0.196243 15.2121 0.0131707ZM8.06308 1.67531H15.0798C15.1907 1.67531 15.3931 1.95782 15.349 2.09216V18.9059C15.3931 19.0402 15.1907 19.3227 15.0798 19.3227H8.06308V1.67531ZM1.65297 8.82304V1.94663C1.65297 1.88868 1.86316 1.67531 1.92024 1.67531H6.46071V8.82304H1.65297ZM1.65297 10.499H6.46071V19.3227H1.92024C1.86316 19.3227 1.65297 19.1093 1.65297 19.0514V10.499Z" fill="black"/>
<path d="M8.06308 1.67529V19.3227H15.0798C15.1907 19.3227 15.3931 19.0402 15.349 18.9058V2.09215C15.3931 1.9578 15.1907 1.67529 15.0798 1.67529H8.06308ZM13.3184 2.72434C13.8037 2.78624 14.1813 3.07402 14.2747 3.57714C14.1553 5.49743 14.4479 7.64556 14.2812 9.53951C14.2319 10.0993 13.8186 10.4443 13.2834 10.4983C12.5173 10.5754 10.948 10.5681 10.174 10.5003C9.60187 10.4503 9.21198 10.1236 9.13154 9.53753C9.25609 7.66203 8.96676 5.56789 9.12959 3.71872C9.18084 3.13526 9.57267 2.77768 10.1332 2.71644C10.8539 2.63741 12.6061 2.6328 13.3184 2.72434ZM10.115 11.1516C10.3979 11.1984 10.6353 11.4532 10.7196 11.7206C10.8273 12.0584 10.8299 13.3682 10.6937 13.6876C10.3959 14.3863 9.31253 14.3014 9.1523 13.5085C9.09261 13.2154 9.09326 12.1664 9.13543 11.8589C9.20095 11.3775 9.64663 11.0746 10.115 11.1516Z" fill="white"/>
<path d="M1.65295 10.499V19.0514C1.65295 19.1094 1.86314 19.3227 1.92022 19.3227H6.46069V10.499H1.65295ZM5.35655 11.151C5.60307 11.1958 5.8684 11.444 5.95014 11.6818C6.076 12.0479 6.06626 13.3162 5.92873 13.6804C5.6634 14.3811 4.54434 14.283 4.39384 13.5573C4.33285 13.2636 4.3348 12.1697 4.37632 11.8582C4.44119 11.3769 4.88687 11.0647 5.35655 11.151Z" fill="white"/>
<path d="M1.65295 8.82302H6.46069V1.67529H1.92022C1.86314 1.67529 1.65295 1.88866 1.65295 1.94661V8.82302ZM5.25665 2.72039C5.55117 2.74409 5.84894 2.97261 5.95079 3.25182C6.07016 3.57977 6.06497 4.89026 5.95014 5.22348C5.70427 5.93733 4.6423 5.92021 4.41784 5.2024C4.33091 4.92318 4.34129 3.85372 4.36983 3.52182C4.40941 3.06546 4.79345 2.68351 5.256 2.72105L5.25665 2.72039Z" fill="white"/>
<path d="M13.3184 2.72441C12.6061 2.63353 10.8539 2.63748 10.1332 2.71651C9.57331 2.77775 9.18147 3.13534 9.12957 3.7188C8.96609 5.56796 9.25608 7.6621 9.13152 9.53761C9.21196 10.1237 9.6025 10.4503 10.174 10.5004C10.9473 10.5682 12.5166 10.5755 13.2834 10.4984C13.8186 10.4444 14.2318 10.0993 14.2811 9.53958C14.4479 7.64564 14.1559 5.4975 14.2747 3.57721C14.1812 3.07343 13.8037 2.78631 13.3184 2.72441ZM10.7825 4.38655H12.6275V8.8231H10.7825V4.38655Z" fill="black"/>
<path d="M10.115 11.1516C9.64664 11.0745 9.20096 11.3775 9.13544 11.8589C9.09392 12.1664 9.09327 13.2154 9.15231 13.5085C9.31255 14.3007 10.3959 14.3856 10.6937 13.6876C10.8299 13.3682 10.8267 12.0584 10.7196 11.7206C10.6347 11.4539 10.3979 11.1983 10.115 11.1516Z" fill="black"/>
<path d="M5.35658 11.151C4.88689 11.0654 4.44122 11.3769 4.37634 11.8582C4.33482 12.1697 4.33288 13.2636 4.39386 13.5573C4.54436 14.2823 5.66342 14.3811 5.92876 13.6804C6.06629 13.3162 6.07602 12.0479 5.95016 11.6818C5.86842 11.444 5.60309 11.1958 5.35658 11.151Z" fill="black"/>
<path d="M5.25664 2.72044C4.79344 2.68291 4.41004 3.06551 4.37047 3.52122C4.34128 3.85378 4.3309 4.92258 4.41848 5.2018C4.64294 5.92026 5.70491 5.93738 5.95078 5.22287C6.06561 4.88965 6.0708 3.57917 5.95143 3.25122C5.84958 2.972 5.55181 2.74349 5.25729 2.71978L5.25664 2.72044Z" fill="black"/>
<path d="M10.7826 4.38647H12.6276V8.82302H10.7826V4.38647Z" fill="white"/>
</svg>
