<svg width="40" height="49" viewBox="0 0 40 49" fill="none" xmlns="http://www.w3.org/2000/svg">
<g clip-path="url(#clip0_142_182)">
<path d="M35.7932 0.0302596L4.40526 0C1.90956 0.29957 0.0961647 2.31637 0 4.80674V43.4346C0.0946388 45.9553 1.96909 48.0114 4.51364 48.2474H35.4864C38.0279 48.0114 39.9038 45.9583 40 43.4346L39.9939 4.69932C39.7939 2.26796 38.2248 0.450868 35.7932 0.0302596ZM18.972 3.84902H35.4818C35.7428 3.84902 36.219 4.49809 36.1152 4.80674V43.4361C36.219 43.7448 35.7428 44.3939 35.4818 44.3939H18.972V3.84902ZM3.88933 20.2709V4.47237C3.88933 4.33923 4.38389 3.84902 4.51822 3.84902H15.2017V20.2709H3.88933ZM3.88933 24.1214H15.2017V44.3939H4.51822C4.38389 44.3939 3.88933 43.9037 3.88933 43.7705V24.1214Z" fill="black"/>
<path d="M18.972 3.84912V44.394H35.4818C35.7428 44.394 36.219 43.7449 36.1152 43.4362V4.80684C36.219 4.49819 35.7428 3.84912 35.4818 3.84912H18.972ZM31.3375 6.2593C32.4793 6.40152 33.3677 7.06269 33.5875 8.21861C33.3066 12.6305 33.995 17.5658 33.6027 21.9171C33.4867 23.2032 32.5144 23.996 31.2551 24.12C29.4524 24.297 25.76 24.2804 23.9389 24.1246C22.5926 24.0096 21.6753 23.2591 21.486 21.9126C21.7791 17.6036 21.0983 12.7923 21.4814 8.5439C21.602 7.2034 22.5239 6.38185 23.8428 6.24114C25.5386 6.05958 29.6615 6.04899 31.3375 6.2593ZM23.8 25.6209C24.4656 25.7283 25.0242 26.3138 25.2227 26.9281C25.4761 27.7043 25.4822 30.7136 25.1616 31.4474C24.461 33.0527 21.9118 32.8575 21.5348 31.0359C21.3944 30.3626 21.3959 27.9524 21.4951 27.2458C21.6493 26.1399 22.698 25.4439 23.8 25.6209Z" fill="white"/>
<path d="M3.88933 24.1213V43.7704C3.88933 43.9036 4.38389 44.3938 4.51822 44.3938H15.2017V24.1213H3.88933ZM12.6037 25.6192C13.1837 25.7221 13.808 26.2925 14.0004 26.8387C14.2965 27.6799 14.2736 30.5939 13.95 31.4305C13.3257 33.0404 10.6926 32.8149 10.3385 31.1476C10.195 30.4728 10.1996 27.9598 10.2973 27.2441C10.4499 26.1381 11.4986 25.421 12.6037 25.6192Z" fill="white"/>
<path d="M3.88933 20.271H15.2017V3.84912H4.51822C4.38389 3.84912 3.88933 4.33933 3.88933 4.47247V20.271ZM12.3686 6.25022C13.0616 6.30469 13.7623 6.82969 14.0019 7.4712C14.2828 8.22466 14.2706 11.2355 14.0004 12.0011C13.4219 13.6411 10.9231 13.6018 10.395 11.9526C10.1904 11.3111 10.2148 8.85406 10.282 8.09152C10.3751 7.04302 11.2788 6.16549 12.3671 6.25173L12.3686 6.25022Z" fill="white"/>
<path d="M31.3375 6.25924C29.6615 6.05045 25.5386 6.05952 23.8428 6.24108C22.5255 6.38179 21.6035 7.20334 21.4814 8.54384C21.0967 12.7923 21.779 17.6036 21.486 21.9125C21.6753 23.2591 22.5942 24.0095 23.9389 24.1245C25.7584 24.2803 29.4509 24.297 31.2551 24.12C32.5144 23.9959 33.4867 23.2031 33.6027 21.9171C33.995 17.5657 33.3081 12.6304 33.5875 8.21855C33.3677 7.06112 32.4793 6.40146 31.3375 6.25924ZM25.3707 10.078H29.7119V20.2709H25.3707V10.078Z" fill="black"/>
<path d="M23.8 25.6207C22.698 25.4437 21.6493 26.1396 21.4951 27.2456C21.3974 27.9522 21.3959 30.3624 21.5348 31.0356C21.9118 32.8558 24.461 33.0509 25.1616 31.4472C25.4822 30.7134 25.4745 27.7041 25.2227 26.9279C25.0227 26.3151 24.4656 25.7281 23.8 25.6207Z" fill="black"/>
<path d="M12.6037 25.6194C11.4986 25.4227 10.4499 26.1384 10.2973 27.2443C10.1996 27.96 10.195 30.473 10.3385 31.1478C10.6926 32.8136 13.3257 33.0406 13.95 31.4308C14.2736 30.5941 14.2965 27.6801 14.0004 26.8389C13.8081 26.2927 13.1837 25.7223 12.6037 25.6194Z" fill="black"/>
<path d="M12.3686 6.25024C11.2788 6.164 10.3766 7.04304 10.2835 8.09002C10.2148 8.85408 10.1904 11.3096 10.3965 11.9511C10.9246 13.6018 13.4234 13.6411 14.0019 11.9996C14.2721 11.234 14.2843 8.22316 14.0034 7.4697C13.7638 6.82819 13.0632 6.30319 12.3702 6.24872L12.3686 6.25024Z" fill="black"/>
<path d="M25.3707 10.0779H29.7119V20.2708H25.3707V10.0779Z" fill="white"/>
</g>
<defs>
<clipPath id="clip0_142_182">
<rect width="40" height="48.2474" fill="white" transform="matrix(-1 0 0 1 40 0)"/>
</clipPath>
</defs>
</svg>
