<svg width="20" height="18" viewBox="0 0 20 18" fill="none" xmlns="http://www.w3.org/2000/svg">
<path fill-rule="evenodd" clip-rule="evenodd" d="M12.0349 0.291422C12.4994 0.0990258 12.9972 0 13.5 0C14.0028 0 14.5006 0.0990258 14.9651 0.291422C15.4296 0.483818 15.8516 0.765818 16.2071 1.12132C16.5626 1.47682 16.8446 1.89886 17.037 2.36335C17.2294 2.82784 17.3284 3.32567 17.3284 3.82843C17.3284 4.33118 17.2294 4.82901 17.037 5.2935C16.8446 5.75799 16.5626 6.18003 16.2071 6.53553L5.70711 17.0355C5.51957 17.2231 5.26522 17.3284 5 17.3284H1C0.447715 17.3284 0 16.8807 0 16.3284V12.3284C0 12.0632 0.105357 11.8089 0.292893 11.6213L10.7929 1.12132C11.1484 0.765818 11.5704 0.483818 12.0349 0.291422ZM13.5 2C13.2599 2 13.0221 2.04729 12.8003 2.13918C12.5785 2.23107 12.3769 2.36575 12.2071 2.53553L2 12.7426V15.3284H4.58579L14.7929 5.12132C14.9627 4.95153 15.0974 4.74997 15.1892 4.52814C15.2811 4.3063 15.3284 4.06854 15.3284 3.82843C15.3284 3.58831 15.2811 3.35055 15.1892 3.12872C15.0974 2.90688 14.9627 2.70532 14.7929 2.53553C14.6231 2.36575 14.4215 2.23107 14.1997 2.13918C13.9779 2.04729 13.7401 2 13.5 2Z" fill="white"/>
<path fill-rule="evenodd" clip-rule="evenodd" d="M9.79289 2.12102C10.1834 1.73049 10.8166 1.73049 11.2071 2.12102L15.2071 6.12102C15.5976 6.51154 15.5976 7.14471 15.2071 7.53523C14.8166 7.92576 14.1834 7.92576 13.7929 7.53523L9.79289 3.53523C9.40237 3.14471 9.40237 2.51154 9.79289 2.12102Z" fill="white"/>
<path fill-rule="evenodd" clip-rule="evenodd" d="M12 15.3281C12 14.7758 12.4477 14.3281 13 14.3281H19C19.5523 14.3281 20 14.7758 20 15.3281C20 15.8804 19.5523 16.3281 19 16.3281H13C12.4477 16.3281 12 15.8804 12 15.3281Z" fill="white"/>
</svg>
