<svg width="37" height="36" viewBox="0 0 37 36" fill="none" xmlns="http://www.w3.org/2000/svg">
<path d="M15 9.7132C15 8.97171 15.4477 8.37061 16 8.37061C16.5523 8.37061 17 8.97171 17 9.7132V12.3984C17 13.1399 16.5523 13.741 16 13.741C15.4477 13.741 15 13.1399 15 12.3984V9.7132Z" fill="#AAAAAA"/>
<path d="M16 19.1113C15.4477 19.1113 15 19.5922 15 20.1854V22.3336C15 22.9268 15.4477 23.4076 16 23.4076C16.5523 23.4076 17 22.9268 17 22.3336V20.1854C17 19.5922 16.5523 19.1113 16 19.1113Z" fill="#AAAAAA"/>
<path fill-rule="evenodd" clip-rule="evenodd" d="M10 6.95455C10 4.77052 11.631 3 13.6429 3H23.3571C25.3691 3 27 4.77052 27 6.95455V28.0455C27 30.2296 25.3691 32 23.3571 32H13.6429C11.631 32 10 30.2296 10 28.0455V6.95455ZM13.6429 5.63636H23.3571C24.0278 5.63636 24.5714 6.22654 24.5714 6.95455V14.8636H12.4286V6.95455C12.4286 6.22654 12.9722 5.63636 13.6429 5.63636ZM12.4286 17.5H24.5714V28.0455C24.5714 28.7735 24.0278 29.3636 23.3571 29.3636H13.6429C12.9722 29.3636 12.4286 28.7735 12.4286 28.0455V17.5Z" fill="#AAAAAA"/>
</svg>
