<svg width="37" height="36" viewBox="0 0 37 36" fill="none" xmlns="http://www.w3.org/2000/svg">
<path fill-rule="evenodd" clip-rule="evenodd" d="M18.5 19.3426C15.117 19.3426 12.3745 22.0483 12.3745 25.3858V26.8287C12.3745 27.4756 11.8429 28 11.1872 28C10.5315 28 10 27.4756 10 26.8287V25.3858C10 20.7545 13.8056 17 18.5 17C23.1944 17 27 20.7545 27 25.3858V26.8287C27 27.4756 26.4685 28 25.8128 28C25.1571 28 24.6255 27.4756 24.6255 26.8287V25.3858C24.6255 22.0483 21.883 19.3426 18.5 19.3426Z" fill="#1D1D1D"/>
<path fill-rule="evenodd" clip-rule="evenodd" d="M6.77099 22.3096C4.94128 22.3096 3.45802 23.7033 3.45802 25.4226V26.8452C3.45802 27.483 2.90777 28 2.22901 28C1.55025 28 1 27.483 1 26.8452V25.4226C1 22.4277 3.58378 20 6.77099 20C7.44976 20 8 20.517 8 21.1548C8 21.7926 7.44976 22.3096 6.77099 22.3096Z" fill="#1D1D1D"/>
<path fill-rule="evenodd" clip-rule="evenodd" d="M29 21.1548C29 20.517 29.5502 20 30.229 20C33.4163 20 36 22.4277 36 25.4226V26.8452C36 27.483 35.4498 28 34.771 28C34.0922 28 33.542 27.483 33.542 26.8452V25.4226C33.542 23.7033 32.0588 22.3096 30.229 22.3096C29.5502 22.3096 29 21.7926 29 21.1548Z" fill="#1D1D1D"/>
<path fill-rule="evenodd" clip-rule="evenodd" d="M13 13.5C13 10.4625 15.4624 8 18.5 8C21.5376 8 24 10.4625 24 13.5C24 16.5376 21.5376 19 18.5 19C15.4624 19 13 16.5376 13 13.5ZM18.5 10.3426C16.7562 10.3426 15.3426 11.7562 15.3426 13.5C15.3426 15.2439 16.7561 16.6574 18.5 16.6574C20.2439 16.6574 21.6574 15.2439 21.6574 13.5C21.6574 11.7562 20.2438 10.3426 18.5 10.3426Z" fill="#1D1D1D"/>
<path fill-rule="evenodd" clip-rule="evenodd" d="M2 18C2 15.7908 4.01473 14 6.5 14C8.98527 14 11 15.7908 11 18C11 20.2092 8.98527 22 6.5 22C4.01473 22 2 20.2092 2 18ZM6.5 16.3096C5.44972 16.3096 4.59833 17.0664 4.59833 18C4.59833 18.9336 5.44972 19.6904 6.5 19.6904C7.55028 19.6904 8.40167 18.9336 8.40167 18C8.40167 17.0664 7.55028 16.3096 6.5 16.3096Z" fill="#1D1D1D"/>
<path fill-rule="evenodd" clip-rule="evenodd" d="M26 18C26 15.7908 27.7908 14 30 14C32.2092 14 34 15.7908 34 18C34 20.2092 32.2092 22 30 22C27.7908 22 26 20.2092 26 18ZM30 16.3096C29.0664 16.3096 28.3096 17.0664 28.3096 18C28.3096 18.9336 29.0664 19.6904 30 19.6904C30.9336 19.6904 31.6904 18.9336 31.6904 18C31.6904 17.0664 30.9336 16.3096 30 16.3096Z" fill="#1D1D1D"/>
</svg>
