<svg width="36" height="36" viewBox="0 0 36 36" fill="none" xmlns="http://www.w3.org/2000/svg">
<path d="M27.881 15.4743C28.0554 14.9192 28.57 14.5415 29.1518 14.5415C30.061 14.5415 30.7031 15.4323 30.4155 16.2948L26.8641 26.9478C26.5912 27.7802 26.2053 28.3947 25.7072 28.7906C25.209 29.1861 24.4963 29.3843 23.568 29.3843H22.6772C22.027 29.3843 21.5 28.8573 21.5 28.2072C21.5 27.557 22.027 27.03 22.6772 27.03H23.7114L24.0799 25.8426L20.9352 16.4091C20.629 15.4903 21.3128 14.5415 22.2813 14.5415C22.9011 14.5415 23.4492 14.9438 23.635 15.5351L24.8988 19.5575L25.6767 22.6694H25.7993L26.5982 19.5575L27.881 15.4743Z" fill="#AAAAAA"/>
<path d="M15.6866 15.9134H15.6248L14.5809 18.0018L13.5648 19.8472C12.8014 21.2338 10.8061 21.2261 10.0534 19.8337L9.0742 18.0222L7.98845 15.7704H7.92766V23.8261C7.92766 24.6346 7.27228 25.29 6.46383 25.29C5.65538 25.29 5 24.6346 5 23.8261V13C5 11.8954 5.89543 11 7 11H7.08503C7.82952 11 8.51239 11.4135 8.85736 12.0733L11.7967 17.6945H11.8375L14.7388 12.0816C15.0823 11.4173 15.7676 11 16.5155 11H16.6141C17.7187 11 18.6141 11.8954 18.6141 13V23.8262C18.6141 24.6346 17.9588 25.29 17.1503 25.29C16.3419 25.29 15.6866 24.6346 15.6866 23.8262V15.9134Z" fill="#AAAAAA"/>
</svg>
