<svg width="36" height="36" viewBox="0 0 36 36" fill="none" xmlns="http://www.w3.org/2000/svg">
<mask id="mask0_346_136" style="mask-type:luminance" maskUnits="userSpaceOnUse" x="3" y="3" width="30" height="30">
<path d="M33 3H3V33H33V3Z" fill="white"/>
</mask>
<g mask="url(#mask0_346_136)">
<path d="M29.3125 24.95L6.85 26.125L6.75 24.25L29.225 23.075L29.3125 24.95ZM29.25 27.35H6.75V29.225H29.25V27.35ZM31.75 19.25V8C31.75 6.625 30.625 5.5 29.25 5.5H6.75C5.375 5.5 4.25 6.625 4.25 8V19.25C4.25 20.625 5.375 21.75 6.75 21.75H29.25C30.625 21.75 31.75 20.625 31.75 19.25ZM29.25 19.25H6.75V8H29.25V19.25ZM28 10.5C25.9 10.5 24.2 11.725 23.9875 13.2875C23.1875 12.375 20.575 9.875 15.8125 9.875C9.975 9.875 7.375 13.625 7.375 13.625C7.375 13.625 9.975 17.375 15.8125 17.375C20.575 17.375 23.1875 14.875 23.9875 13.9625C24.2 15.525 25.9 16.75 28 16.75V10.5Z" fill="#AAAAAA"/>
</g>
</svg>
