<svg width="18" height="18" viewBox="0 0 18 18" fill="none" xmlns="http://www.w3.org/2000/svg">
<path fill-rule="evenodd" clip-rule="evenodd" d="M9 2.45455C5.38505 2.45455 2.45455 5.38505 2.45455 9C2.45455 12.615 5.38505 15.5455 9 15.5455C12.615 15.5455 15.5455 12.615 15.5455 9C15.5455 5.38505 12.615 2.45455 9 2.45455ZM1 9C1 4.58172 4.58172 1 9 1C13.4183 1 17 4.58172 17 9C17 13.4183 13.4183 17 9 17C4.58172 17 1 13.4183 1 9Z" fill="#8B8A8A"/>
<path fill-rule="evenodd" clip-rule="evenodd" d="M8.99998 3.90918C9.40164 3.90918 9.72725 4.23479 9.72725 4.63645V8.69884L12.4233 11.3949C12.7073 11.6789 12.7073 12.1394 12.4233 12.4234C12.1393 12.7075 11.6788 12.7075 11.3948 12.4234L8.48572 9.51435C8.34933 9.37796 8.27271 9.19297 8.27271 9.00009V4.63645C8.27271 4.23479 8.59832 3.90918 8.99998 3.90918Z" fill="#8B8A8A"/>
</svg>
