<svg width="34" height="34" viewBox="0 0 34 34" fill="none" xmlns="http://www.w3.org/2000/svg">
<path fill-rule="evenodd" clip-rule="evenodd" d="M17 0C7.61116 0 0 7.61116 0 17C0 26.3888 7.61116 34 17 34C26.3888 34 34 26.3888 34 17C34 7.61116 26.3888 0 17 0ZM24.369 14.1258C24.9155 13.47 24.827 12.4955 24.1712 11.9491C23.5155 11.4027 22.5409 11.4913 21.9946 12.147L15.3507 20.1197L11.911 16.6799C11.3074 16.0764 10.3289 16.0764 9.72538 16.6799C9.12184 17.2834 9.12184 18.262 9.72538 18.8655L14.3618 23.5019C14.6688 23.809 15.0907 23.9726 15.5246 23.953C15.9584 23.9332 16.3639 23.732 16.6418 23.3985L24.369 14.1258Z" fill="black"/>
</svg>
