<svg width="24" height="24" viewBox="0 0 24 24" fill="none" xmlns="http://www.w3.org/2000/svg">
<path fill-rule="evenodd" clip-rule="evenodd" d="M14.0349 3.62736C14.4994 3.43496 14.9972 3.33594 15.5 3.33594C16.0028 3.33594 16.5006 3.43496 16.9651 3.62736C17.4296 3.81976 17.8516 4.10176 18.2071 4.45726C18.5626 4.81276 18.8446 5.2348 19.037 5.69929C19.2294 6.16378 19.3284 6.66161 19.3284 7.16436C19.3284 7.66712 19.2294 8.16495 19.037 8.62944C18.8446 9.09393 18.5626 9.51597 18.2071 9.87147L7.70711 20.3715C7.51957 20.559 7.26522 20.6644 7 20.6644H3C2.44772 20.6644 2 20.2166 2 19.6644V15.6644C2 15.3991 2.10536 15.1448 2.29289 14.9573L12.7929 4.45726C13.1484 4.10176 13.5704 3.81976 14.0349 3.62736ZM15.5 5.33594C15.2599 5.33594 15.0221 5.38323 14.8003 5.47512C14.5785 5.56701 14.3769 5.70169 14.2071 5.87147L4 16.0786V18.6644H6.58579L16.7929 8.45726C16.9627 8.28747 17.0974 8.08591 17.1892 7.86407C17.2811 7.64224 17.3284 7.40448 17.3284 7.16436C17.3284 6.92425 17.2811 6.68649 17.1892 6.46466C17.0974 6.24282 16.9627 6.04126 16.7929 5.87147C16.6231 5.70169 16.4215 5.56701 16.1997 5.47512C15.9779 5.38323 15.7401 5.33594 15.5 5.33594Z" fill="white"/>
<path fill-rule="evenodd" clip-rule="evenodd" d="M11.7929 5.45696C12.1834 5.06643 12.8166 5.06643 13.2071 5.45696L17.2071 9.45696C17.5976 9.84748 17.5976 10.4806 17.2071 10.8712C16.8166 11.2617 16.1834 11.2617 15.7929 10.8712L11.7929 6.87117C11.4024 6.48065 11.4024 5.84748 11.7929 5.45696Z" fill="white"/>
<path fill-rule="evenodd" clip-rule="evenodd" d="M14 18.6641C14 18.1118 14.4477 17.6641 15 17.6641H21C21.5523 17.6641 22 18.1118 22 18.6641C22 19.2163 21.5523 19.6641 21 19.6641H15C14.4477 19.6641 14 19.2163 14 18.6641Z" fill="white"/>
</svg>
