<svg width="24" height="24" viewBox="0 0 24 24" fill="none" xmlns="http://www.w3.org/2000/svg">
<path d="M19.0088 12.0581H21.12" stroke="white" stroke-width="1.5" stroke-linecap="round"/>
<path d="M2.87997 12.0581H14.5087" stroke="white" stroke-width="1.5" stroke-linecap="round"/>
<path d="M9.95248 6.04688H21.12" stroke="white" stroke-width="1.5" stroke-linecap="round"/>
<path d="M2.87997 6.04688H5.45997" stroke="white" stroke-width="1.5" stroke-linecap="round"/>
<path d="M13.125 18.0693H21.12" stroke="white" stroke-width="1.5" stroke-linecap="round"/>
<path d="M2.87997 18.0693H8.62497" stroke="white" stroke-width="1.5" stroke-linecap="round"/>
<path d="M7.70627 8.18066C8.94891 8.18066 9.95627 7.1733 9.95627 5.93066C9.95627 4.68802 8.94891 3.68066 7.70627 3.68066C6.46363 3.68066 5.45627 4.68802 5.45627 5.93066C5.45627 7.1733 6.46363 8.18066 7.70627 8.18066Z" stroke="white" stroke-width="1.5"/>
<path d="M16.7588 14.3081C18.0014 14.3081 19.0088 13.3007 19.0088 12.0581C19.0088 10.8155 18.0014 9.80811 16.7588 9.80811C15.5161 9.80811 14.5088 10.8155 14.5088 12.0581C14.5088 13.3007 15.5161 14.3081 16.7588 14.3081Z" stroke="white" stroke-width="1.5"/>
<path d="M10.875 20.3193C12.1176 20.3193 13.125 19.312 13.125 18.0693C13.125 16.8267 12.1176 15.8193 10.875 15.8193C9.63233 15.8193 8.62497 16.8267 8.62497 18.0693C8.62497 19.312 9.63233 20.3193 10.875 20.3193Z" stroke="white" stroke-width="1.5"/>
</svg>
