<svg width="23" height="23" viewBox="0 0 23 23" fill="none" xmlns="http://www.w3.org/2000/svg">
<path fill-rule="evenodd" clip-rule="evenodd" d="M11.5 0C5.14873 0 0 5.14873 0 11.5C0 17.8512 5.14873 23 11.5 23C17.8512 23 23 17.8512 23 11.5C23 5.14873 17.8512 0 11.5 0ZM16.4849 9.55566C16.8546 9.11208 16.7947 8.45286 16.3511 8.08321C15.9075 7.71358 15.2483 7.77351 14.8787 8.21707L10.3843 13.6104L8.05743 11.2835C7.64915 10.8752 6.98721 10.8752 6.57893 11.2835C6.17066 11.6917 6.17066 12.3537 6.57893 12.762L9.7153 15.8983C9.92304 16.1061 10.2084 16.2168 10.5019 16.2035C10.7954 16.1901 11.0697 16.054 11.2577 15.8284L16.4849 9.55566Z" fill="#1D1D1D"/>
</svg>
