<svg width="60" height="60" viewBox="0 0 60 60" fill="none" xmlns="http://www.w3.org/2000/svg">
<rect x="0.5" y="0.5" width="59" height="59" rx="11.5" stroke="#D9D9D9" stroke-dasharray="5 5"/>
<path fill-rule="evenodd" clip-rule="evenodd" d="M29.9999 17.6863C30.5522 17.6863 30.9999 18.134 30.9999 18.6863L30.9999 29L41.3136 29C41.8659 29 42.3136 29.4477 42.3136 30C42.3136 30.5523 41.8659 31 41.3136 31L30.9999 31L30.9999 41.3137C30.9999 41.866 30.5522 42.3137 29.9999 42.3137C29.4476 42.3137 28.9999 41.866 28.9999 41.3137L28.9999 31L18.6862 31C18.1339 31 17.6862 30.5523 17.6862 30C17.6862 29.4477 18.1339 29 18.6862 29L28.9999 29L28.9999 18.6863C28.9999 18.134 29.4476 17.6863 29.9999 17.6863Z" fill="#D9D9D9"/>
</svg>
