<svg width="18" height="18" viewBox="0 0 18 18" fill="none" xmlns="http://www.w3.org/2000/svg">
<path d="M8.42102 1.44056C8.60326 0.853146 9.39674 0.853148 9.57898 1.44056L11.0502 6.18272C11.1317 6.44542 11.3654 6.62328 11.6292 6.62328H16.3901C16.9798 6.62328 17.225 7.41364 16.7479 7.77668L12.8962 10.7075C12.6829 10.8699 12.5936 11.1576 12.6751 11.4203L14.1463 16.1625C14.3285 16.7499 13.6866 17.2384 13.2095 16.8753L9.35783 13.9445C9.14446 13.7822 8.85554 13.7822 8.64217 13.9445L4.79052 16.8753C4.31342 17.2384 3.67148 16.7499 3.85372 16.1625L5.32491 11.4203C5.40641 11.1576 5.31713 10.8699 5.10376 10.7075L1.25211 7.77668C0.775007 7.41364 1.02021 6.62328 1.60994 6.62328H6.37084C6.63458 6.62328 6.86832 6.44542 6.94982 6.18272L8.42102 1.44056Z" fill="#8B8A8A"/>
</svg>
