<svg width="18" height="18" viewBox="0 0 18 18" fill="none" xmlns="http://www.w3.org/2000/svg">
<path fill-rule="evenodd" clip-rule="evenodd" d="M9.41134 0.505544C9.60992 0.529551 9.78927 0.630063 9.90714 0.783396C10.5327 1.5971 11.3495 2.25147 12.2877 2.6927C12.2888 2.69323 12.29 2.69377 12.2911 2.69431C13.9552 3.42175 15.3099 4.67696 16.1339 6.24898C16.9617 7.82808 17.2052 9.63339 16.8251 11.3642C16.4451 13.0952 15.4635 14.6504 14.0403 15.7684C12.6169 16.8866 10.8383 17.499 9.00143 17.5H9.00098C7.42993 17.4999 5.89489 17.0523 4.58651 16.2145C3.27833 15.3768 2.25507 14.1866 1.64127 12.7934C1.02752 11.4004 0.849383 9.86409 1.12822 8.37469C1.40706 6.88522 2.1311 5.50594 3.21289 4.40878C3.36264 4.25691 3.57672 4.17719 3.79551 4.19183C4.01431 4.20646 4.21445 4.31389 4.34019 4.4842C4.73153 5.01422 5.20228 5.4807 5.73457 5.8693C5.86863 5.05161 6.12765 4.2553 6.50521 3.5071C7.0629 2.40192 7.86582 1.42834 8.85781 0.656535C9.01253 0.536157 9.21276 0.481537 9.41134 0.505544ZM9.23815 2.18958C8.6583 2.74256 8.17726 3.38868 7.81743 4.10174C7.35064 5.02679 7.09967 6.04111 7.08309 7.07223C7.07924 7.31151 6.94469 7.53177 6.72764 7.65409C6.51059 7.7764 6.24213 7.78327 6.01843 7.67223C5.15441 7.24333 4.38091 6.66792 3.73305 5.97633C3.14303 6.75402 2.74003 7.65593 2.5604 8.61546C2.33012 9.84552 2.47751 11.1138 2.98353 12.2624C3.48949 13.4108 4.33092 14.3873 5.40087 15.0724C6.4705 15.7573 7.72215 16.1215 9.00059 16.1216M9.23815 2.18958C9.9106 2.90284 10.7177 3.48976 11.6192 3.91703C11.6334 3.92435 11.648 3.93123 11.6628 3.93765C13.0296 4.53006 14.1493 5.56116 14.8313 6.86219C15.5134 8.16348 15.715 9.65384 15.4011 11.0834C15.0872 12.5129 14.2778 13.7914 13.112 14.7072C11.9467 15.6227 10.4953 16.1208 9.00064 16.1216" fill="#8B8A8A"/>
<path fill-rule="evenodd" clip-rule="evenodd" d="M8.9628 7.1092C9.12132 6.9742 9.33435 6.91189 9.54559 6.93874C10.5829 7.07058 11.5281 7.57266 12.19 8.34231C12.8519 9.11187 13.1812 10.0915 13.1122 11.0829C13.0431 12.0742 12.5807 13.0042 11.8177 13.6841C11.0545 14.3641 10.0477 14.7431 9.00113 14.7434H9.00096C8.34876 14.7435 7.70595 14.5964 7.12534 14.3143C6.54474 14.0323 6.043 13.6233 5.6611 13.1214C5.27922 12.6194 5.028 12.0386 4.92784 11.4267C4.82767 10.8149 4.88138 10.1891 5.0846 9.60068C5.15735 9.39003 5.33257 9.2254 5.55547 9.15826C5.77836 9.09111 6.02174 9.12965 6.20949 9.26182C6.50906 9.47271 6.83324 9.64825 7.17487 9.78528C7.49881 8.75887 8.11495 7.83122 8.9628 7.1092ZM9.68163 8.36706C9.01424 9.02751 8.57379 9.86996 8.42524 10.7817C8.39412 10.9727 8.27978 11.1425 8.11011 11.2498C7.94044 11.3571 7.73104 11.3919 7.53296 11.3458C7.11917 11.2494 6.71812 11.1126 6.33603 10.9381C6.34041 11.0308 6.35011 11.1233 6.36519 11.2154C6.43026 11.6129 6.5934 11.9898 6.84099 12.3153C7.08858 12.6407 7.41351 12.9054 7.78891 13.0878C8.16426 13.2701 8.57949 13.3651 9.00059 13.3651M9.68163 8.36706C10.2208 8.50294 10.705 8.79745 11.0625 9.21311C11.4915 9.71196 11.7057 10.3479 11.6608 10.9921C11.6159 11.6363 11.3155 12.2395 10.8213 12.6799C10.3272 13.1202 9.67638 13.3648 9.00076 13.3651" fill="#8B8A8A"/>
</svg>
