<svg width="12" height="12" viewBox="0 0 12 12" fill="none" xmlns="http://www.w3.org/2000/svg">
<path fill-rule="evenodd" clip-rule="evenodd" d="M10.8373 1.16272C11.0542 1.37968 11.0542 1.73143 10.8373 1.94839L6.78567 6.00001L10.8373 10.0516C11.0542 10.2686 11.0542 10.6203 10.8373 10.8373C10.6203 11.0542 10.2686 11.0542 10.0516 10.8373L6 6.78568L1.9484 10.8373C1.73145 11.0542 1.37969 11.0542 1.16273 10.8373C0.945772 10.6203 0.945772 10.2686 1.16273 10.0516L5.21432 6.00001L1.16272 1.94841C0.945761 1.73145 0.94576 1.37969 1.16272 1.16274C1.37968 0.945777 1.73143 0.945777 1.94839 1.16273L6 5.21433L10.0516 1.16272C10.2686 0.945761 10.6203 0.94576 10.8373 1.16272Z" fill="black"/>
</svg>
