<svg width="20" height="20" viewBox="0 0 20 20" fill="none" xmlns="http://www.w3.org/2000/svg">
<path fill-rule="evenodd" clip-rule="evenodd" d="M9.99634 1.29253C10.3867 1.29253 10.7032 1.60898 10.7032 1.99935L10.7032 9.28928L17.9931 9.28927C18.3834 9.28927 18.6999 9.60573 18.6999 9.99609C18.6999 10.3865 18.3834 10.7029 17.9931 10.7029L10.7032 10.7029L10.7032 17.9928C10.7032 18.3832 10.3867 18.6996 9.99635 18.6996C9.60598 18.6996 9.28953 18.3832 9.28953 17.9928L9.28952 10.7029L1.99961 10.7029C1.60924 10.7029 1.29279 10.3865 1.29279 9.99611C1.29279 9.60574 1.60924 9.28929 1.99961 9.28929L9.28952 9.28928L9.28952 1.99935C9.28952 1.60898 9.60597 1.29253 9.99634 1.29253Z" fill="#AAAAAA"/>
</svg>
