<svg width="10" height="10" viewBox="0 0 10 10" fill="none" xmlns="http://www.w3.org/2000/svg">
<path fill-rule="evenodd" clip-rule="evenodd" d="M7.50002 6.0775C7.33502 6.15125 7.01044 6.25 6.45835 6.25C5.99002 6.25 5.58294 6.09042 5.1521 5.92167C4.66794 5.73208 4.1671 5.53583 3.54169 5.53583C3.10127 5.53583 2.76002 5.58875 2.50002 5.66V5V2.25667C2.66502 2.18292 2.99044 2.08333 3.54169 2.08333C4.01002 2.08333 4.4171 2.24292 4.84794 2.41167C5.3321 2.60125 5.83294 2.7975 6.45835 2.7975C6.84919 2.7975 7.19835 2.75542 7.50002 2.6725V6.0775ZM8.02835 1.95C7.83585 1.81083 7.58669 1.77125 7.3621 1.84458C7.1221 1.9225 6.8096 1.96417 6.45835 1.96417C5.99002 1.96417 5.58294 1.80458 5.1521 1.63583C4.66794 1.44625 4.1671 1.25 3.54169 1.25C2.33877 1.25 1.87294 1.64667 1.79169 1.72667C1.71169 1.80458 1.66669 1.91208 1.66669 2.02375V5V6.30958V8.33333C1.66669 8.56375 1.85294 8.75 2.08335 8.75C2.31377 8.75 2.50002 8.56375 2.50002 8.33333V6.5425C2.6646 6.46917 2.98877 6.36917 3.54169 6.36917C4.01002 6.36917 4.4171 6.52875 4.84794 6.6975C5.3321 6.88708 5.83294 7.08333 6.45835 7.08333C7.2121 7.08333 7.67627 6.92583 7.93377 6.79375C8.18044 6.66583 8.33335 6.4175 8.33335 6.14542V2.54417C8.33335 2.31083 8.2196 2.08875 8.02835 1.95V1.95Z" fill="#1D1D1D"/>
</svg>
