<svg width="40" height="40" viewBox="0 0 40 40" fill="none" xmlns="http://www.w3.org/2000/svg">
<path fill-rule="evenodd" clip-rule="evenodd" d="M9.65806 39.7716L9.85213 38.7906C10.546 38.9279 11.2641 39 12 39H14V40H12C11.1986 40 10.4155 39.9214 9.65806 39.7716ZM26 40V39H28C28.7359 39 29.454 38.9279 30.1479 38.7906L30.3419 39.7716C29.5845 39.9214 28.8014 40 28 40H26ZM34.6674 37.9788L34.1111 37.1478C35.3111 36.3444 36.3444 35.3111 37.1478 34.1111L37.9788 34.6674C37.1027 35.976 35.976 37.1027 34.6674 37.9788ZM40 14H39V12C39 11.2641 38.9279 10.546 38.7906 9.85213L39.7716 9.65806C39.9214 10.4155 40 11.1986 40 12V14ZM37.9788 5.33261L37.1478 5.88893C36.3444 4.68894 35.3111 3.65556 34.1111 2.85218L34.6674 2.02122C35.976 2.89731 37.1027 4.024 37.9788 5.33261ZM14 0H12C11.1986 0 10.4155 0.0785633 9.65806 0.228408L9.85213 1.2094C10.546 1.07213 11.2641 1 12 1H14V0ZM5.33261 2.02121L5.88893 2.85218C4.68894 3.65556 3.65556 4.68893 2.85218 5.88893L2.02122 5.33261C2.89731 4.02399 4.024 2.89731 5.33261 2.02121ZM0 26H1V28C1 28.7359 1.07213 29.454 1.2094 30.1479L0.228409 30.3419C0.0785634 29.5845 0 28.8014 0 28V26ZM2.02121 34.6674L2.85218 34.1111C3.65556 35.3111 4.68893 36.3444 5.88893 37.1478L5.33261 37.9788C4.024 37.1027 2.89731 35.976 2.02121 34.6674ZM0 22H1V18H0V22ZM0 14H1V12C1 11.2641 1.07213 10.546 1.2094 9.85213L0.228409 9.65806C0.0785633 10.4155 0 11.1986 0 12V14ZM18 0V1H22V0H18ZM26 0V1H28C28.7359 1 29.454 1.07213 30.1479 1.2094L30.3419 0.228409C29.5845 0.0785634 28.8014 0 28 0H26ZM40 18H39V22H40V18ZM40 26H39V28C39 28.7359 38.9279 29.454 38.7906 30.1479L39.7716 30.3419C39.9214 29.5845 40 28.8014 40 28V26ZM22 40V39H18V40H22Z" fill="#AAAAAA"/>
<path fill-rule="evenodd" clip-rule="evenodd" d="M19.9999 11.7909C20.3681 11.7909 20.6666 12.0893 20.6666 12.4575L20.6666 19.3333L27.5424 19.3333C27.9106 19.3333 28.2091 19.6318 28.2091 20C28.2091 20.3682 27.9106 20.6667 27.5424 20.6667L20.6666 20.6667L20.6666 27.5425C20.6666 27.9107 20.3681 28.2091 19.9999 28.2091C19.6317 28.2091 19.3333 27.9107 19.3333 27.5425L19.3333 20.6667L12.4575 20.6667C12.0893 20.6667 11.7908 20.3682 11.7908 20C11.7908 19.6318 12.0893 19.3333 12.4575 19.3333L19.3333 19.3333L19.3333 12.4575C19.3333 12.0893 19.6317 11.7909 19.9999 11.7909Z" fill="#1D1D1D"/>
<path fill-rule="evenodd" clip-rule="evenodd" d="M18.3332 12.4575C18.3332 11.5371 19.0794 10.7909 19.9998 10.7909C20.9203 10.7909 21.6665 11.5371 21.6665 12.4575L21.6665 18.3333L27.5423 18.3333C28.4628 18.3333 29.209 19.0795 29.209 20C29.209 20.9205 28.4628 21.6667 27.5423 21.6667L21.6665 21.6667L21.6665 27.5425C21.6665 28.4629 20.9203 29.2091 19.9998 29.2091C19.0794 29.2091 18.3332 28.4629 18.3332 27.5425L18.3332 21.6667L12.4574 21.6667C11.5369 21.6667 10.7907 20.9205 10.7907 20C10.7907 19.0795 11.5369 18.3333 12.4574 18.3333L18.3332 18.3333L18.3332 12.4575Z" fill="#AAAAAA"/>
</svg>
