<svg width="76" height="76" viewBox="0 0 76 76" fill="none" xmlns="http://www.w3.org/2000/svg">
<path fill-rule="evenodd" clip-rule="evenodd" d="M18.3503 75.566L18.719 73.7021C20.0374 73.963 21.4018 74.1 22.8 74.1H26.6V76H22.8C21.2773 76 19.7895 75.8507 18.3503 75.566ZM49.4 76V74.1H53.2C54.5982 74.1 55.9626 73.963 57.281 73.7021L57.6497 75.566C56.2105 75.8507 54.7227 76 53.2 76H49.4ZM65.868 72.1597L64.811 70.5808C67.091 69.0544 69.0544 67.091 70.5808 64.811L72.1597 65.868C70.4951 68.3544 68.3544 70.4951 65.868 72.1597ZM76 26.6H74.1V22.8C74.1 21.4018 73.963 20.0374 73.7021 18.719L75.566 18.3503C75.8507 19.7895 76 21.2773 76 22.8V26.6ZM72.1597 10.132L70.5808 11.189C69.0544 8.90898 67.091 6.94557 64.811 5.41915L65.868 3.84031C68.3544 5.5049 70.4951 7.64559 72.1597 10.132ZM26.6 0H22.8C21.2773 0 19.7895 0.14927 18.3503 0.433976L18.719 2.29785C20.0374 2.03704 21.4018 1.9 22.8 1.9H26.6V0ZM10.132 3.84031L11.189 5.41915C8.90898 6.94557 6.94557 8.90898 5.41915 11.189L3.84031 10.132C5.50489 7.64559 7.64559 5.50489 10.132 3.84031ZM0 49.4H1.9V53.2C1.9 54.5982 2.03704 55.9626 2.29785 57.281L0.433976 57.6497C0.14927 56.2105 0 54.7227 0 53.2V49.4ZM3.84031 65.868L5.41915 64.811C6.94557 67.091 8.90898 69.0544 11.189 70.5808L10.132 72.1597C7.64559 70.4951 5.50489 68.3544 3.84031 65.868ZM0 41.8H1.9V34.2H0V41.8ZM0 26.6H1.9V22.8C1.9 21.4018 2.03704 20.0374 2.29785 18.719L0.433976 18.3503C0.14927 19.7895 0 21.2773 0 22.8V26.6ZM34.2 0V1.9H41.8V0H34.2ZM49.4 0V1.9H53.2C54.5982 1.9 55.9626 2.03704 57.281 2.29785L57.6497 0.433976C56.2105 0.14927 54.7227 0 53.2 0H49.4ZM76 34.2H74.1V41.8H76V34.2ZM76 49.4H74.1V53.2C74.1 54.5982 73.963 55.9626 73.7021 57.281L75.566 57.6497C75.8507 56.2105 76 54.7227 76 53.2V49.4ZM41.8 76V74.1H34.2V76H41.8Z" fill="#AAAAAA"/>
<path fill-rule="evenodd" clip-rule="evenodd" d="M36.316 30.3807C36.316 29.4509 37.0698 28.6971 37.9997 28.6971C38.9295 28.6971 39.6833 29.4509 39.6833 30.3807L39.6833 36.3164L45.6189 36.3164C46.5488 36.3164 47.3026 37.0702 47.3026 38C47.3026 38.9298 46.5488 39.6836 45.6189 39.6836L39.6833 39.6836L39.6833 45.6193C39.6833 46.5491 38.9295 47.3029 37.9997 47.3029C37.0698 47.3029 36.316 46.5491 36.316 45.6193L36.316 39.6836L30.3804 39.6836C29.4506 39.6837 28.6968 38.9299 28.6968 38C28.6968 37.0702 29.4506 36.3164 30.3804 36.3164L36.316 36.3164L36.316 30.3807Z" fill="#AAAAAA"/>
</svg>
