<svg width="50" height="50" viewBox="0 0 50 50" fill="none" xmlns="http://www.w3.org/2000/svg">
<rect width="50" height="50" rx="25" fill="#F8F8F8"/>
<path d="M32.983 12.8217L17.1177 12.8064C15.8562 12.9578 14.9396 13.9772 14.891 15.236V34.7609C14.9388 36.0349 15.8863 37.0742 17.1724 37.1935H32.8279C34.1125 37.0742 35.0608 36.0365 35.1094 34.7609L35.1063 15.1817C35.0052 13.9528 34.2121 13.0343 32.983 12.8217ZM24.4805 14.7519H32.8256C32.9575 14.7519 33.1983 15.08 33.1458 15.236V34.7616C33.1983 34.9176 32.9575 35.2457 32.8256 35.2457H24.4805V14.7519ZM16.8569 23.0525V15.067C16.8569 14.9997 17.1069 14.7519 17.1748 14.7519H22.5748V23.0525H16.8569ZM16.8569 24.9988H22.5748V35.2457H17.1748C17.1069 35.2457 16.8569 34.9979 16.8569 34.9306V24.9988Z" fill="#C7C7C7"/>
<path d="M30.7311 15.9702C29.884 15.8647 27.8 15.8692 26.9429 15.961C26.277 16.0321 25.811 16.4474 25.7493 17.125C25.5548 19.2724 25.8997 21.7043 25.7516 23.8823C25.8473 24.5629 26.3117 24.9422 26.9915 25.0004C27.9111 25.0791 29.7775 25.0876 30.6895 24.9981C31.326 24.9354 31.8175 24.5346 31.8761 23.8846C32.0744 21.6852 31.7272 19.1906 31.8684 16.9605C31.7573 16.3755 31.3083 16.0421 30.7311 15.9702ZM27.7152 17.9004H29.9095V23.0525H27.7152V17.9004Z" fill="#C7C7C7"/>
<path d="M26.9208 25.7565C26.3637 25.6671 25.8337 26.0188 25.7557 26.5779C25.7064 26.935 25.7056 28.1533 25.7758 28.4936C25.9664 29.4136 27.2548 29.5122 27.609 28.7016C27.771 28.3307 27.7672 26.8096 27.6398 26.4173C27.5388 26.1076 27.2572 25.8108 26.9208 25.7565Z" fill="#C7C7C7"/>
<path d="M21.2619 25.7558C20.7033 25.6564 20.1732 26.0181 20.0961 26.5771C20.0467 26.9389 20.0444 28.2091 20.1169 28.5502C20.2959 29.3922 21.6268 29.5069 21.9424 28.6932C22.106 28.2703 22.1175 26.7974 21.9679 26.3722C21.8706 26.0961 21.5551 25.8078 21.2619 25.7558Z" fill="#C7C7C7"/>
<path d="M21.1431 15.9655C20.5922 15.9219 20.1362 16.3662 20.0891 16.8954C20.0544 17.2816 20.0421 18.5228 20.1462 18.8471C20.4132 19.6814 21.6762 19.7013 21.9686 18.8715C22.1052 18.4846 22.1114 16.9627 21.9694 16.5819C21.8483 16.2576 21.4941 15.9922 21.1439 15.9647L21.1431 15.9655Z" fill="#C7C7C7"/>
</svg>
