<svg width="393" height="303" viewBox="0 0 393 303" fill="none" xmlns="http://www.w3.org/2000/svg">
<rect width="393" height="303" fill="#F8F8F8"/>
<path d="M213.307 98.9848L181.584 98.9542C179.062 99.257 177.229 101.295 177.132 103.812V142.852C177.228 145.4 179.122 147.478 181.694 147.716H212.997C215.565 147.478 217.461 145.403 217.559 142.852L217.552 103.704C217.35 101.246 215.764 99.4099 213.307 98.9848ZM196.306 102.844H212.992C213.256 102.844 213.737 103.5 213.632 103.812V142.854C213.737 143.166 213.256 143.822 212.992 143.822H196.306V102.844ZM181.063 119.441V103.474C181.063 103.34 181.563 102.844 181.698 102.844H192.496V119.441H181.063ZM181.063 123.333H192.496V143.822H181.698C181.563 143.822 181.063 143.326 181.063 143.192V123.333Z" fill="black" fill-opacity="0.22"/>
<path d="M208.804 105.28C207.11 105.069 202.943 105.078 201.229 105.262C199.898 105.404 198.966 106.234 198.842 107.589C198.454 111.883 199.143 116.746 198.847 121.1C199.038 122.461 199.967 123.22 201.326 123.336C203.165 123.494 206.897 123.51 208.72 123.331C209.993 123.206 210.976 122.405 211.093 121.105C211.49 116.707 210.795 111.719 211.078 107.26C210.856 106.091 209.958 105.424 208.804 105.28ZM202.773 109.14H207.161V119.441H202.773V109.14Z" fill="black" fill-opacity="0.22"/>
<path d="M201.186 124.848C200.072 124.669 199.012 125.373 198.856 126.491C198.757 127.205 198.756 129.641 198.896 130.321C199.277 132.161 201.854 132.358 202.562 130.737C202.886 129.995 202.878 126.954 202.623 126.169C202.421 125.55 201.858 124.957 201.186 124.848Z" fill="black" fill-opacity="0.22"/>
<path d="M189.87 124.847C188.753 124.648 187.693 125.371 187.539 126.489C187.44 127.212 187.435 129.752 187.58 130.434C187.938 132.118 190.6 132.347 191.231 130.72C191.558 129.875 191.581 126.929 191.281 126.079C191.087 125.527 190.456 124.951 189.87 124.847Z" fill="black" fill-opacity="0.22"/>
<path d="M189.632 105.271C188.531 105.184 187.619 106.072 187.525 107.13C187.456 107.903 187.431 110.384 187.639 111.033C188.173 112.701 190.698 112.741 191.283 111.082C191.556 110.308 191.568 107.265 191.285 106.504C191.042 105.855 190.334 105.325 189.634 105.27L189.632 105.271Z" fill="black" fill-opacity="0.22"/>
<path d="M245.541 189.815C247.743 189.815 248.845 190.916 248.845 193.373V203.665H242.661V195.025H221.061V189.815H231.395V186.597H217.292V181.472H242.068V177.618H220.849V173.044H242.068V170.206H221.061V165.251H244.44C246.854 165.251 248.209 166.691 248.209 169.359V177.745L244.567 181.472H252.868V186.597H237.663V189.815H245.541Z" fill="black" fill-opacity="0.22"/>
<path d="M205.563 190.62H184.599V186.088H211.578V194.432C211.578 196.338 210.688 197.142 208.994 197.142H190.698V199.514H213.526L210.688 204.046H187.648C185.615 204.046 184.684 203.114 184.684 200.827V192.822H205.563V190.62ZM185.573 176.855V179.439H202.98L200.058 183.844H182.905C180.702 183.844 179.644 182.742 179.644 180.286V165.59H198.872V170.121H185.573V172.578H197.94V176.855H185.573ZM205.945 171.519V164.954H211.916V184.309H205.945V176.22H199.846V171.519H205.945Z" fill="black" fill-opacity="0.22"/>
<path d="M145.849 179.481H158.216V165.208H163.722V172.069H167.915V164.954H173.463V185.665H167.915V177.109H163.722V185.538H158.216V180.921L155.802 184.564H143.393C141.191 184.564 140.132 183.462 140.132 181.006V165.801H145.849V179.481ZM173.209 197.312C173.209 201.293 170.414 204.003 165.925 204.003H153.176C148.687 204.003 145.892 201.293 145.892 197.312V194.305C145.892 190.324 148.687 187.613 153.176 187.613H165.925C170.414 187.613 173.209 190.324 173.209 194.305V197.312ZM167.195 199.006V192.611H151.906V199.006H167.195Z" fill="black" fill-opacity="0.22"/>
</svg>
